<?xml version="1.0" encoding="utf-8"?>
<!-- Generator: Adobe Illustrator 21.1.0, SVG Export Plug-In . SVG Version: 6.00 Build 0)  -->
<svg version="1.1" id="Слой_1" xmlns="http://www.w3.org/2000/svg" xmlns:xlink="http://www.w3.org/1999/xlink" x="0px" y="0px"
	 viewBox="0 0 501.5 128.1" style="enable-background:new 0 0 501.5 128.1;" xml:space="preserve">
<style type="text/css">
	.st0{fill:#FFFFFF;}
</style>
<path class="st0" d="M441.1,125.4c-3.5-2.9-4.7-7.6-3.2-11.7c0.6-1.5,7.4-10.6,15.1-20.2s14-17.7,14-18S363.5,75,236.9,75H6.8
	l-3.4-3.4C0.6,68.8,0,67.4,0,64s0.6-4.8,3.4-7.6L6.8,53h230.1C363.5,53,467,52.8,467,52.5s-6.3-8.4-14-18s-14.5-18.7-15.1-20.2
	C435.3,7.5,440.6,0,448,0c2.1,0,4.5,0.3,5.4,0.6s12,13.7,24.8,29.7C501,58.8,501.5,59.5,501.5,64s-0.5,5.2-23.3,33.7
	c-12.8,16-23.9,29.4-24.8,29.7C449.6,128.8,444.1,128,441.1,125.4L441.1,125.4z"/>
</svg>
