<?xml version="1.0" encoding="utf-8"?>
<!-- Generator: Adobe Illustrator 21.1.0, SVG Export Plug-In . SVG Version: 6.00 Build 0)  -->
<svg version="1.1" id="Слой_1" xmlns="http://www.w3.org/2000/svg" xmlns:xlink="http://www.w3.org/1999/xlink" x="0px" y="0px"
	 viewBox="0 0 128.1 501.5" style="enable-background:new 0 0 128.1 501.5;" xml:space="preserve">
<style type="text/css">
	.st0{fill:#FFFFFF;}
</style>
<path class="st0" d="M2.7,441.1c2.9-3.5,7.6-4.7,11.7-3.2c1.5,0.6,10.6,7.4,20.2,15.1s17.7,14,18,14s0.5-103.5,0.5-230.1V6.8
	l3.4-3.4C59.3,0.6,60.7,0,64.1,0c3.4,0,4.8,0.6,7.6,3.4l3.4,3.4v230.1c0,126.6,0.2,230.1,0.5,230.1c0.3,0,8.4-6.3,18-14
	s18.7-14.5,20.2-15.1c6.8-2.6,14.3,2.7,14.3,10.1c0,2.1-0.3,4.5-0.6,5.4c-0.3,0.9-13.7,12-29.7,24.8c-28.5,22.8-29.2,23.3-33.7,23.3
	s-5.2-0.5-33.7-23.3c-16-12.8-29.4-23.9-29.7-24.8C-0.7,449.6,0.1,444.1,2.7,441.1L2.7,441.1z"/>
</svg>
